<?xml version="1.0" standalone="no"?>
<!DOCTYPE svg PUBLIC "-//W3C//DTD SVG 20010904//EN"
 "http://www.w3.org/TR/2001/REC-SVG-20010904/DTD/svg10.dtd">
<svg version="1.0" xmlns="http://www.w3.org/2000/svg"
 width="256px" height="256px" viewBox="0 0 256.000000 256.000000"
 preserveAspectRatio="xMidYMid meet">

<g transform="translate(0.000000,256.000000) scale(0.100000,-0.100000)"
fill="#000000" stroke="none">
<path d="M1269 2027 c-116 -40 -203 -115 -258 -226 -84 -165 -57 -364 67 -502
l43 -48 -69 -36 c-225 -118 -397 -377 -405 -611 -2 -48 1 -58 22 -75 13 -10
38 -19 56 -19 46 0 70 34 84 116 43 243 211 431 446 500 79 23 229 23 315 0
228 -61 403 -252 446 -486 18 -99 40 -130 91 -130 36 0 72 28 74 58 5 84 -22
196 -71 299 -71 145 -185 266 -328 345 l-72 40 41 46 c218 245 110 636 -202
733 -85 27 -195 25 -280 -4z m253 -157 c65 -24 128 -86 160 -155 61 -135 -2
-308 -137 -377 -48 -25 -154 -35 -211 -19 -142 38 -237 193 -206 338 37 179
221 278 394 213z"/>
<path d="M532 1467 c-15 -16 -22 -36 -22 -65 l0 -42 -39 0 c-27 0 -49 -7 -67
-23 -59 -51 -18 -137 67 -137 l39 0 0 -43 c0 -53 30 -87 77 -87 47 0 74 28 80
83 l6 47 39 0 c28 0 46 7 63 25 53 53 15 135 -63 135 l-39 0 -6 47 c-3 32 -12
53 -27 65 -32 26 -82 23 -108 -5z"/>
</g>
</svg>
